<?xml version="1.0" standalone="no"?><svg xmlns="http://www.w3.org/2000/svg" viewBox="0 0 1440 320"><path fill="#020202" fill-opacity="1" d="M0,192L18.5,197.3C36.9,203,74,213,111,234.7C147.7,256,185,288,222,298.7C258.5,309,295,299,332,272C369.2,245,406,203,443,170.7C480,139,517,117,554,138.7C590.8,160,628,224,665,224C701.5,224,738,160,775,128C812.3,96,849,96,886,117.3C923.1,139,960,181,997,181.3C1033.8,181,1071,139,1108,117.3C1144.6,96,1182,96,1218,90.7C1255.4,85,1292,75,1329,74.7C1366.2,75,1403,85,1422,90.7L1440,96L1440,0L1421.5,0C1403.1,0,1366,0,1329,0C1292.3,0,1255,0,1218,0C1181.5,0,1145,0,1108,0C1070.8,0,1034,0,997,0C960,0,923,0,886,0C849.2,0,812,0,775,0C738.5,0,702,0,665,0C627.7,0,591,0,554,0C516.9,0,480,0,443,0C406.2,0,369,0,332,0C295.4,0,258,0,222,0C184.6,0,148,0,111,0C73.8,0,37,0,18,0L0,0Z"></path></svg>